# xmcd CD database file
#
# Track frame offsets:
#	183
#	15420
#	26408
#	37803
#	48995
#	64973
#	79128
#	91420
#	103775
#	116823
#	137725
#	151200
#	163128
#	177305
#	191428
#	202418
#	215305
#	227188
#	258810
#
# Disc length: 3608 seconds
#
# Revision: 3
# Processed by: cddbd v1.5.1PL0 Copyright (c) Steve Scherf et al.
# Submitted via: CDex 1.51
#
DISCID=020e1613
DTITLE=Various Artist - Blues Legends - The Best of Blues Music Vol 3
DYEAR=1987
DGENRE=Blues
TTITLE0=B.McGhee and S.Terry - Walk On
TTITLE1=J. Reed - Baby What You Want Me To Do
TTITLE2=John Lee Hooker - Boom Boom Boom
TTITLE3=Eddie Taylor - Leave This Neigborhood
TTITLE4=John Lee Hooker - It Serves Me Right To Suffer
TTITLE5=Memphis Slim - Slim's Blues
TTITLE6=Pee Wee Crayton - I Love Her Still
TTITLE7=Jimmy Reed - Honest I Do
TTITLE8=John Lee Hooker - Whiskey And Wimmen
TTITLE9=Big Car Blues
TTITLE10=John Lee Hooker - Hobo Blues
TTITLE11=Roscoe Gordon - Jelly Jelly
TTITLE12=Pee Wee Crayton - Telephone Is Ringin'
TTITLE13=Memphis Slim  - Messin' Around With The Blues
TTITLE14=John Lee Hooker - No Shoes
TTITLE15=Jimmy Reed - You Got Me Dizzy
TTITLE16=Billy Boy Arnold - Rockinitus
TTITLE17=Lightnin' Hopkins - Blues For Gamblers
TTITLE18=Jimmy Reed - Hush Hush
EXTD=YEAR: 1987
EXTT0=
EXTT1=
EXTT2=
EXTT3=
EXTT4=
EXTT5=
EXTT6=
EXTT7=
EXTT8=
EXTT9=
EXTT10=
EXTT11=
EXTT12=
EXTT13=
EXTT14=
EXTT15=
EXTT16=
EXTT17=
EXTT18=
PLAYORDER=
